<?xml version="1.0" encoding="UTF-8" standalone="no"?>
<svg
   xmlns:dc="http://purl.org/dc/elements/1.1/"
   xmlns:cc="http://creativecommons.org/ns#"
   xmlns:rdf="http://www.w3.org/1999/02/22-rdf-syntax-ns#"
   xmlns:svg="http://www.w3.org/2000/svg"
   xmlns="http://www.w3.org/2000/svg"
   viewBox="0 0 2666.6667 1333.3333"
   height="1333.3333"
   width="2666.6667"
   xml:space="preserve"
   id="svg2"
   version="1.1"><metadata
     id="metadata8"><rdf:RDF><cc:Work
         rdf:about=""><dc:format>image/svg+xml</dc:format><dc:type
           rdf:resource="http://purl.org/dc/dcmitype/StillImage" /></cc:Work></rdf:RDF></metadata><defs
     id="defs6"><clipPath
       id="clipPath18"
       clipPathUnits="userSpaceOnUse"><path
         id="path16"
         d="m 341.421,295.807 h 1317.802 v 408.64 H 341.421 Z" /></clipPath><clipPath
       id="clipPath42"
       clipPathUnits="userSpaceOnUse"><path
         id="path40"
         d="M 0,1000 H 2000 V 0 H 0 Z" /></clipPath></defs><g
     transform="matrix(1.3333333,0,0,-1.3333333,0,1333.3333)"
     id="g10"><g
       id="g12"><g
         clip-path="url(#clipPath18)"
         id="g14"><g
           transform="translate(724.2354,530.2397)"
           id="g20"><path
             id="path22"
             style="fill:#003300;fill-opacity:1;fill-rule:nonzero;stroke:none"
             d="m 0,0 c 4.523,-0.567 9.048,-1.131 12.439,-1.979 7.917,-2.263 8.483,-6.22 8.766,-14.137 0.566,-9.331 0.566,-24.882 0.566,-55.981 0,-49.76 -0.849,-68.988 -1.415,-75.774 -0.564,-8.2 -2.543,-11.31 -7.917,-12.722 -3.957,-1.131 -6.502,-1.131 -14.418,-2.262 -0.849,-0.566 -0.849,-4.241 0,-4.81 11.594,0 24.316,0.852 38.168,0.852 18.097,0 50.892,-1.131 69.835,-1.131 12.723,0 15.834,1.131 17.247,3.394 5.09,7.914 13.006,36.756 14.421,45.518 -0.283,1.131 -3.96,1.98 -4.808,1.131 -5.089,-12.439 -14.137,-26.858 -19.792,-32.516 -5.653,-5.936 -9.894,-7.348 -15.55,-7.348 -11.025,-0.566 -33.078,0 -39.299,1.694 -3.111,0.567 -4.807,3.678 -5.09,8.483 -0.565,9.331 -0.846,46.367 -0.565,72.946 0.283,25.444 0.283,53.721 0.565,59.374 0.283,7.635 0.85,11.026 7.07,13.006 3.108,1.131 5.37,1.412 11.59,2.262 0.85,0.565 0.567,4.241 0,4.806 C 64.747,4.523 53.153,3.958 35.907,3.958 14.702,3.958 8.2,4.806 0.282,4.806 -0.283,4.523 -0.566,0.565 0,0 m 206.956,-95.564 c 0,-2.829 0.28,-3.677 0,-6.786 0,-0.849 -1.415,-2.828 -1.98,-3.11 -11.309,-5.089 -44.39,-13.288 -50.893,-17.529 -1.696,-3.111 -4.241,-11.594 -4.241,-14.705 0,-10.742 3.958,-20.354 9.897,-26.008 4.524,-4.242 9.895,-6.504 15.832,-6.504 4.807,0 16.964,4.525 29.687,14.135 0,0 1.133,0.283 1.133,-0.282 0.282,-1.412 0.845,-3.958 1.413,-5.371 1.978,-4.807 6.502,-8.482 15.55,-8.482 9.895,0 19.509,3.675 26.294,11.307 0.564,0.568 1.414,5.657 1.414,6.506 -3.675,-1.131 -5.655,-1.414 -8.483,-1.414 -7.635,0 -9.33,7.916 -9.33,12.439 0,11.028 0.566,29.405 0.566,42.975 0,9.048 -1.413,20.922 -6.221,28.842 -5.936,9.328 -16.116,15.548 -29.969,15.548 -7.352,0 -25.446,-7.633 -38.735,-17.247 -1.129,-1.129 -5.37,-12.723 -5.37,-14.42 0,-1.413 4.241,-5.088 5.37,-4.523 1.696,4.808 7.632,15.551 9.895,17.248 1.979,1.695 7.069,3.394 13.289,3.394 7.635,0 16.117,-3.394 20.64,-10.464 3.109,-4.522 4.242,-9.895 4.242,-15.549 m -0.283,-16.68 c 0,-4.808 0,-24.316 -0.282,-33.082 0,-2.828 -0.85,-4.807 -2.263,-5.936 -2.262,-1.696 -5.937,-2.262 -8.765,-2.262 -9.895,0 -18.66,8.482 -18.66,21.77 0,3.391 1.413,9.329 2.263,10.179 2.542,2.827 16.963,7.069 26.857,10.46 0.283,0 0.85,-0.848 0.85,-1.129 m 60.22,-9.613 c -0.849,0.848 -4.524,0 -5.09,-1.132 0.85,-8.483 3.959,-36.192 6.785,-40.713 5.091,-3.394 22.619,-8.201 39.303,-8.201 39.582,0 62.763,21.77 62.763,52.024 0,19.508 -11.308,32.232 -28.836,44.105 -10.745,7.068 -19.507,11.592 -30.538,20.073 -11.307,8.484 -17.528,17.814 -17.528,30.82 0,15.548 10.463,27.707 27.99,27.707 8.765,0 15.268,-1.414 21.771,-5.937 7.633,-4.806 10.745,-13.005 12.439,-30.818 0.567,-0.566 4.242,-0.283 4.809,0.567 1.131,16.398 3.109,27.708 4.808,38.168 -10.746,0.564 -22.34,4.242 -40.998,4.242 -30.819,0 -56.265,-17.53 -56.265,-48.63 0,-24.883 14.419,-38.452 41.847,-56.265 22.901,-14.985 31.948,-24.882 31.948,-41.847 0,-17.242 -11.028,-27.425 -26.579,-27.425 -10.46,0 -19.51,1.98 -26.859,7.071 -10.179,7.068 -16.399,16.397 -21.77,36.191 m 179.253,26.293 c 0,-2.829 0.283,-3.677 0,-6.786 0,-0.849 -1.415,-2.828 -1.979,-3.11 -11.309,-5.089 -44.39,-13.288 -50.896,-17.529 -1.694,-3.111 -4.24,-11.594 -4.24,-14.705 0,-10.742 3.962,-20.354 9.897,-26.008 4.525,-4.242 9.896,-6.504 15.835,-6.504 4.804,0 16.961,4.525 29.686,14.135 0,0 1.131,0.283 1.131,-0.282 0.283,-1.412 0.849,-3.958 1.412,-5.371 1.98,-4.807 6.503,-8.482 15.554,-8.482 9.893,0 19.507,3.675 26.292,11.307 0.564,0.568 1.415,5.657 1.415,6.506 -3.677,-1.131 -5.656,-1.414 -8.485,-1.414 -7.632,0 -9.329,7.916 -9.329,12.439 0,11.028 0.566,29.405 0.566,42.975 0,9.048 -1.414,20.922 -6.219,28.842 -5.938,9.328 -16.115,15.548 -29.971,15.548 -7.351,0 -25.447,-7.633 -38.735,-17.247 -1.13,-1.129 -5.37,-12.723 -5.37,-14.42 0,-1.413 4.24,-5.088 5.37,-4.523 1.697,4.808 7.636,15.551 9.899,17.248 1.977,1.695 7.066,3.394 13.285,3.394 7.634,0 16.116,-3.394 20.639,-10.464 3.112,-4.522 4.243,-9.895 4.243,-15.549 m -0.283,-16.68 c 0,-4.808 0,-24.316 -0.283,-33.082 0,-2.828 -0.849,-4.807 -2.263,-5.936 -2.262,-1.696 -5.937,-2.262 -8.764,-2.262 -9.895,0 -18.659,8.482 -18.659,21.77 0,3.391 1.413,9.329 2.26,10.179 2.546,2.827 16.966,7.069 26.861,10.46 0.283,0 0.848,-0.848 0.848,-1.129 m 48.632,-55.421 c 4.242,0 13.571,0.852 28.274,0.852 14.702,0 26.858,-0.852 30.25,-0.852 0.568,0.852 0.85,3.963 0.568,4.81 -3.395,0.565 -6.222,0.848 -9.334,2.262 -4.24,1.977 -5.086,3.675 -5.651,12.439 -0.569,11.028 -0.569,32.231 -0.569,80.297 0,24.88 0,46.936 0.284,61.07 0,17.812 0.85,27.142 2.262,30.252 0,0.566 -0.847,1.415 -1.412,1.697 -9.615,-4.525 -30.818,-9.611 -44.389,-10.462 -0.565,-0.846 -0.848,-3.675 0,-4.24 4.803,-0.565 7.914,-1.412 10.177,-2.545 3.111,-1.129 3.394,-4.523 3.677,-7.632 1.131,-11.593 1.131,-44.389 1.131,-72.945 0,-26.579 -0.284,-63.049 -0.566,-75.492 -0.283,-8.764 -1.697,-10.745 -4.807,-12.157 -3.11,-1.413 -5.087,-1.696 -9.895,-2.544 -0.565,-0.847 -0.565,-3.958 0,-4.81 m 66.723,0 c 4.241,0 13.569,0.852 28.271,0.852 14.702,0 26.862,-0.852 30.253,-0.852 0.567,0.852 0.849,3.963 0.567,4.81 -3.393,0.565 -6.221,0.848 -9.332,2.262 -4.242,1.977 -5.085,3.675 -5.654,12.439 -0.566,11.028 -0.566,32.231 -0.566,80.297 0,24.88 0,46.936 0.283,61.07 0,17.812 0.852,27.142 2.263,30.252 0,0.566 -0.851,1.415 -1.411,1.697 -9.618,-4.525 -30.82,-9.611 -44.393,-10.462 -0.564,-0.846 -0.847,-3.675 0,-4.24 4.806,-0.565 7.917,-1.412 10.18,-2.545 3.108,-1.129 3.393,-4.523 3.675,-7.632 1.13,-11.593 1.13,-44.389 1.13,-72.945 0,-26.579 -0.28,-63.049 -0.563,-75.492 -0.282,-8.764 -1.699,-10.745 -4.809,-12.157 -3.11,-1.413 -5.09,-1.696 -9.894,-2.544 -0.566,-0.847 -0.566,-3.958 0,-4.81 m 111.111,152.397 c 0,1.978 -0.565,6.22 -2.26,8.481 -1.133,0.85 -4.808,3.11 -10.178,3.11 -4.807,0 -12.441,-2.543 -14.987,-4.805 -1.698,-2.263 -2.26,-7.071 -1.698,-10.462 0.284,-3.675 2.262,-9.331 6.788,-11.026 3.393,-1.414 13.569,0.283 15.832,1.412 3.393,2.546 6.503,7.919 6.503,13.29 m 14.985,-147.587 c -4.806,0.565 -7.35,1.415 -9.331,1.979 -3.674,1.415 -5.369,3.394 -5.654,11.026 -0.283,12.439 -0.283,34.212 -0.283,48.912 0,16.118 0.568,40.715 0.568,47.784 -12.441,-5.937 -34.212,-9.331 -41.28,-9.613 -0.285,-0.565 -0.285,-4.241 0,-4.807 4.522,-1.415 7.068,-2.261 9.613,-4.805 1.697,-2.263 1.98,-5.092 1.98,-7.354 0.563,-4.24 0.563,-16.397 0.563,-26.856 0,-14.14 -0.284,-35.909 -0.563,-42.411 -0.283,-7.071 -1.415,-10.461 -5.373,-11.876 -2.546,-1.131 -6.22,-1.697 -9.612,-1.979 -0.566,-0.284 -0.566,-4.241 0,-4.81 5.935,0 15.831,0.852 29.971,0.852 11.023,0 21.485,-0.852 28.27,-0.852 1.131,0.569 1.131,3.963 1.131,4.81 m 67.575,67.291 c 0,-2.829 0.282,-3.677 0,-6.786 0,-0.849 -1.415,-2.828 -1.98,-3.11 -11.308,-5.089 -44.389,-13.288 -50.893,-17.529 -1.695,-3.111 -4.24,-11.594 -4.24,-14.705 0,-10.742 3.957,-20.354 9.897,-26.008 4.523,-4.242 9.894,-6.504 15.831,-6.504 4.808,0 16.966,4.525 29.687,14.135 0,0 1.132,0.283 1.132,-0.282 0.282,-1.412 0.848,-3.958 1.414,-5.371 1.977,-4.807 6.502,-8.482 15.55,-8.482 9.895,0 19.509,3.675 26.294,11.307 0.566,0.568 1.415,5.657 1.415,6.506 -3.678,-1.131 -5.655,-1.414 -8.483,-1.414 -7.633,0 -9.331,7.916 -9.331,12.439 0,11.028 0.566,29.405 0.566,42.975 0,9.048 -1.414,20.922 -6.221,28.842 -5.936,9.328 -16.116,15.548 -29.969,15.548 -7.351,0 -25.445,-7.633 -38.736,-17.247 -1.129,-1.129 -5.369,-12.723 -5.369,-14.42 0,-1.413 4.24,-5.088 5.369,-4.523 1.698,4.808 7.636,15.551 9.897,17.248 1.982,1.695 7.068,3.394 13.288,3.394 7.635,0 16.119,-3.394 20.641,-10.464 3.109,-4.522 4.241,-9.895 4.241,-15.549 m -0.284,-16.68 c 0,-4.808 0,-24.316 -0.282,-33.082 0,-2.828 -0.849,-4.807 -2.262,-5.936 -2.263,-1.696 -5.935,-2.262 -8.764,-2.262 -9.894,0 -18.662,8.482 -18.662,21.77 0,3.391 1.415,9.329 2.263,10.179 2.546,2.827 16.965,7.069 26.859,10.46 0.284,0 0.848,-0.848 0.848,-1.129 m 50.892,-50.611 c -0.565,-1.13 -0.565,-3.958 0,-4.81 5.654,0.287 10.463,0.852 28.273,0.852 13.004,0 22.336,-0.565 30.817,-0.852 0.283,0.852 0.565,4.244 0.283,4.81 -4.522,0.565 -6.785,1.131 -9.328,1.979 -3.677,0.848 -5.656,2.545 -6.223,11.308 -0.565,11.874 -0.565,48.63 -0.565,66.443 0,3.11 1.132,5.091 2.546,6.22 5.09,3.96 11.875,5.655 16.681,5.655 5.94,0 9.895,-1.129 13.572,-3.958 4.807,-3.675 7.068,-9.612 8.196,-14.985 2.264,-11.028 1.698,-50.327 1.134,-61.069 -0.566,-5.938 -1.416,-8.766 -5.939,-9.897 -1.978,-0.565 -4.24,-1.131 -8.482,-1.696 -0.283,-0.284 -0.565,-4.241 0,-4.81 8.201,0.287 15.551,0.852 30.818,0.852 16.682,0 22.334,-0.852 26.576,-0.852 0.849,0.852 1.131,3.963 1.131,4.81 -5.934,0.848 -8.762,2.262 -12.156,4.239 -1.697,1.134 -2.545,3.112 -2.545,5.092 -0.566,9.048 -0.283,39.018 -0.283,52.303 0,13.007 -1.412,24.034 -6.501,32.232 -5.656,9.614 -14.136,14.986 -26.58,14.986 -8.761,0 -22.052,-5.937 -37.036,-17.811 -0.283,-0.565 -1.132,-0.283 -1.132,0.564 0.283,4.807 0.565,11.31 1.132,16.401 0,0.563 -0.567,1.412 -0.849,1.695 -8.764,-5.092 -26.011,-9.894 -40.996,-11.594 -0.565,-0.563 -0.849,-3.675 -0.849,-4.241 11.309,-3.673 11.875,-7.634 12.441,-10.461 0.282,-2.543 0.568,-18.092 0.568,-27.425 0,-11.309 0,-33.927 -0.568,-42.693 -0.283,-7.068 -2.261,-10.46 -5.653,-11.591 -3.111,-0.848 -5.939,-1.414 -8.483,-1.696" /></g><g
           transform="translate(381.8521,367.1006)"
           id="g24"><path
             id="path26"
             style="fill:#044a04;fill-opacity:1;fill-rule:nonzero;stroke:none"
             d="m 0,0 c -0.85,-0.848 -0.85,-3.392 0,-4.522 7.352,-0.283 24.596,0.848 40.147,0.848 11.027,0 27.145,-0.848 37.039,-0.848 0.566,0.565 0.847,3.674 0.566,4.522 -6.502,0.566 -11.31,0.852 -15.551,2.263 -5.936,1.697 -9.331,3.392 -9.895,19.225 -0.848,14.986 -1.132,96.13 -1.132,136.278 0,0.848 0.567,2.262 1.413,2.545 5.939,0.283 48.632,0.566 59.093,0 1.413,-0.283 2.545,-1.979 2.545,-3.392 0.281,-9.896 0.281,-20.924 0.281,-93.586 0,-7.066 -0.281,-41.562 -0.564,-48.348 C 113.659,6.503 112.527,3.111 108.003,1.697 105.459,0.852 102.632,0.566 98.39,0 c -0.565,-1.128 -0.848,-3.392 0,-4.522 4.809,0 14.985,0.848 24.597,0.848 11.594,0 24.883,-0.565 28.274,-0.565 0.283,0.565 0.85,3.391 0,4.239 -4.524,0.566 -5.936,0.852 -9.328,1.697 -5.373,1.414 -7.07,3.958 -7.352,12.724 -0.566,7.636 -0.849,46.368 -0.849,66.16 0,1.694 1.415,4.522 3.677,6.502 5.936,5.09 13.287,7.633 21.205,7.633 17.529,0 24.314,-12.157 26.011,-20.356 2.543,-13.007 1.696,-41.843 1.413,-56.829 C 185.755,5.091 184.625,3.96 181.231,2.263 179.252,1.415 175.012,0.852 170.204,0 c -0.564,-0.848 -0.847,-3.957 0,-4.522 3.958,0.283 15.834,0.565 25.165,0.848 12.44,0.282 23.748,-0.848 27.425,-0.848 0.563,0.283 1.413,3.674 1.13,4.522 -7.915,0.852 -11.874,1.697 -15.551,4.525 -1.979,1.696 -1.697,4.241 -1.697,5.09 -0.282,12.442 -0.563,40.995 -0.563,55.416 0,27.989 -11.594,43.257 -32.514,43.257 -10.744,0 -23.751,-5.655 -38.736,-17.248 -0.566,-0.28 -1.131,0 -1.131,0.282 v 70.118 c 0.283,22.339 0.565,26.861 0.565,27.991 0,0.85 -0.847,1.416 -1.412,1.416 -0.85,0 -7.916,-3.393 -17.531,-3.677 -0.565,0 -1.412,-1.414 -1.412,-1.979 v -14.985 c 0,-0.847 -0.849,-1.129 -1.132,-1.129 l -124.967,-0.284 c -6.786,0 -15.835,1.695 -20.924,3.958 -0.847,0.283 -1.979,0 -2.544,0 -0.565,-11.591 -2.827,-29.97 -4.806,-41.562 0.283,-0.847 3.958,-1.696 4.806,-1.13 3.959,10.744 7.633,18.378 11.875,24.032 2.262,3.109 5.373,6.22 11.026,6.22 6.22,0.566 34.777,0.566 39.866,0.283 0.566,0 1.698,-1.132 1.698,-1.98 C 28.84,113.379 28.557,35.342 28.273,22.902 27.424,9.332 26.294,3.675 18.096,2.546 14.418,1.697 9.048,0.852 0,0 m 327.403,20.641 c -10.18,-9.613 -20.075,-11.875 -30.82,-11.875 -11.873,0 -22.616,3.957 -31.099,14.419 -6.219,7.634 -10.18,20.075 -10.461,31.101 0,1.415 0.564,3.11 1.696,3.11 21.772,0.565 61.07,2.828 72.097,6.502 0.849,0.283 1.413,2.829 1.13,3.675 -2.543,0.285 -3.11,1.416 -3.392,2.262 -2.262,13.573 -11.027,38.453 -37.319,38.453 -7.353,0 -21.207,-3.957 -28.84,-9.046 -14.985,-9.331 -24.316,-26.579 -24.316,-49.478 0,-15.269 3.96,-31.667 14.704,-43.261 7.632,-8.481 18.942,-13.57 33.078,-13.57 13.855,0 30.536,7.351 44.106,22.052 0.283,0.566 0.849,3.392 0.566,4.809 0,0.563 -0.847,0.847 -1.13,0.847 m -47.216,80.297 c 16.396,0 24.313,-17.813 26.011,-32.232 0,-1.133 -1.132,-1.979 -1.698,-2.263 -5.937,-1.412 -40.148,-2.545 -47.781,-1.979 -0.282,0 -0.848,0.848 -0.848,1.697 1.131,22.616 11.592,34.777 24.316,34.777" /></g></g></g><g
       transform="translate(999.6157,669.7803)"
       id="g28"><path
         id="path30"
         style="fill:#003300;fill-opacity:1;fill-rule:nonzero;stroke:none"
         d="m 0,0 -24.087,33.795 1.92,-41.457 -39.354,13.182 25.921,-32.413 -39.584,-12.465 40.022,-10.983 -24.697,-33.353 38.832,14.633 -0.375,-41.499 L 1.414,-75.894 25.5,-109.686 23.581,-68.232 62.934,-81.411 37.015,-48.998 76.6,-36.535 36.58,-25.548 61.275,7.806 22.44,-6.832 22.815,34.667 Z" /></g><g
       transform="translate(1000.3223,650.8574)"
       id="g32"><path
         id="path34"
         style="fill:#ffffff;fill-opacity:1;fill-rule:nonzero;stroke:none"
         d="M 0,0 4.722,-14.531 H 20 L 7.64,-23.515 12.362,-38.045 0,-29.064 l -12.361,-8.981 4.721,14.53 -12.36,8.984 h 15.278 z" /></g><g
       id="g36"><g
         clip-path="url(#clipPath42)"
         id="g38"><g
           transform="translate(761.8525,619.8682)"
           id="g44"><path
             id="path46"
             style="fill:#231f20;fill-opacity:1;fill-rule:nonzero;stroke:none"
             d="m 0,0 c 1.511,-1.033 3.618,-1.749 5.844,-1.749 4.015,0 6.479,2.266 6.479,5.565 0,2.982 -1.55,4.771 -5.446,6.242 C 2.584,11.608 0,13.834 0,17.451 c 0,3.936 3.22,6.798 7.792,6.798 2.504,0 4.413,-0.636 5.327,-1.232 l -0.716,-1.63 c -0.715,0.517 -2.425,1.272 -4.73,1.272 -4.333,0 -5.804,-2.783 -5.804,-4.889 0,-2.942 1.709,-4.453 5.565,-5.963 4.413,-1.789 6.758,-3.817 6.758,-7.791 0,-3.896 -2.783,-7.355 -8.507,-7.355 -2.306,0 -5.009,0.756 -6.4,1.789 z" /></g><path
           id="path48"
           style="fill:#231f20;fill-opacity:1;fill-rule:nonzero;stroke:none"
           d="m 785.825,616.927 h -1.909 v 26.793 h 1.909 z" /><g
           transform="translate(795.127,616.9268)"
           id="g50"><path
             id="path52"
             style="fill:#231f20;fill-opacity:1;fill-rule:nonzero;stroke:none"
             d="M 0,0 V 26.793 H 1.789 L 12.204,10.972 C 14.39,7.632 15.94,5.128 17.252,2.544 l 0.08,0.039 c -0.278,3.618 -0.318,6.679 -0.318,10.854 v 13.356 h 1.829 L 18.843,0 H 17.094 L 6.877,15.583 C 4.89,18.644 3.061,21.466 1.67,24.249 L 1.59,24.209 C 1.789,20.91 1.829,18.008 1.829,13.555 V 0 Z" /></g><g
           transform="translate(841.4004,617.8804)"
           id="g54"><path
             id="path56"
             style="fill:#231f20;fill-opacity:1;fill-rule:nonzero;stroke:none"
             d="m 0,0 c -1.352,-0.675 -3.936,-1.351 -7.235,-1.351 -6.48,0 -12.681,4.134 -12.681,13.635 0,7.95 5.128,13.953 13.595,13.953 3.419,0 5.406,-0.756 6.202,-1.153 l -0.597,-1.59 c -1.351,0.675 -3.299,1.153 -5.565,1.153 -7.235,0 -11.647,-4.691 -11.647,-12.403 0,-7.274 4.134,-11.965 11.329,-11.965 2.266,0 4.492,0.477 6.042,1.232 z" /></g><g
           transform="translate(861.2778,630.2441)"
           id="g58"><path
             id="path60"
             style="fill:#231f20;fill-opacity:1;fill-rule:nonzero;stroke:none"
             d="M 0,0 H -10.694 V -11.727 H 1.272 v -1.59 H -12.602 V 13.476 H 0.636 v -1.59 h -11.33 V 1.589 L 0,1.589 Z" /></g><g
           transform="translate(1156.5381,640.8184)"
           id="g62"><path
             id="path64"
             style="fill:#231f20;fill-opacity:1;fill-rule:nonzero;stroke:none"
             d="m 0,0 h -0.08 l -4.213,-2.465 -0.478,1.51 4.89,2.902 H 1.868 V -23.892 H 0 Z" /></g><g
           transform="translate(1178.3232,641.6133)"
           id="g66"><path
             id="path68"
             style="fill:#231f20;fill-opacity:1;fill-rule:nonzero;stroke:none"
             d="m 0,0 c -3.538,0 -6.003,-3.141 -6.003,-7.395 0,-3.816 2.385,-6.32 5.804,-6.32 2.743,0 5.01,1.431 6.122,3.34 C 6.082,-10.058 6.28,-9.7 6.28,-9.223 6.28,-3.777 4.254,0 0.04,0 Z m -5.804,-23.375 c 0.755,-0.079 1.749,0 2.942,0.199 2.107,0.318 4.054,1.352 5.605,3.021 1.709,1.829 3.022,4.452 3.498,8.189 l -0.119,-0.039 c -1.63,-2.108 -3.896,-3.34 -6.679,-3.34 -4.809,0 -7.354,3.777 -7.354,7.831 0,4.771 3.261,9.104 8.268,9.104 4.454,0 7.792,-3.777 7.792,-10.773 0,-5.844 -2.027,-9.859 -4.413,-12.244 -1.669,-1.749 -4.014,-2.941 -6.042,-3.339 -1.391,-0.278 -2.623,-0.398 -3.498,-0.358 z" /></g><g
           transform="translate(1199.9492,618.0796)"
           id="g70"><path
             id="path72"
             style="fill:#231f20;fill-opacity:1;fill-rule:nonzero;stroke:none"
             d="m 0,0 c 3.498,0 5.924,2.862 5.924,7.235 0,4.532 -2.623,6.838 -6.201,6.838 -2.426,0 -4.731,-1.471 -5.923,-3.738 C -6.439,9.898 -6.639,9.381 -6.639,8.825 -6.639,3.617 -4.293,0 -0.039,0 Z m 5.486,23.375 c -0.755,0 -1.71,-0.041 -2.782,-0.279 -5.566,-1.153 -8.746,-5.923 -9.262,-11.011 h 0.079 c 1.193,1.908 3.538,3.618 6.678,3.618 4.731,0 7.712,-3.499 7.712,-8.309 0,-4.492 -2.822,-8.984 -8.07,-8.984 -4.651,0 -8.387,3.777 -8.387,10.852 0,5.208 1.829,9.223 4.214,11.727 1.868,1.948 4.452,3.3 7.234,3.817 0.954,0.238 1.909,0.318 2.584,0.318 z" /></g><g
           transform="translate(1220.9795,618.0796)"
           id="g74"><path
             id="path76"
             style="fill:#231f20;fill-opacity:1;fill-rule:nonzero;stroke:none"
             d="m 0,0 c 4.292,0 6.241,4.889 6.241,11.926 0,6.757 -1.829,11.608 -6.202,11.608 -3.736,0 -6.202,-4.771 -6.202,-11.608 C -6.281,4.731 -3.816,0 -0.04,0 Z m -0.239,-1.59 c -4.055,0 -7.791,3.975 -7.911,13.237 0,9.382 4.134,13.477 8.467,13.477 4.532,0 7.911,-4.095 7.911,-12.999 0,-9.263 -3.339,-13.715 -8.427,-13.715 z" /></g><g
           transform="translate(423.7051,321.9287)"
           id="g78"><path
             id="path80"
             style="fill:#231f20;fill-opacity:1;fill-rule:nonzero;stroke:none"
             d="M 0,0 H -4.584 V 1.655 H 6.575 V 0 H 1.968 V -13.417 H 0 Z" /></g><g
           transform="translate(448.3301,323.584)"
           id="g82"><path
             id="path84"
             style="fill:#231f20;fill-opacity:1;fill-rule:nonzero;stroke:none"
             d="M 0,0 V -6.307 H 7.291 V 0 H 9.258 V -15.072 H 7.291 v 7.067 H 0 v -7.067 H -1.945 V 0 Z" /></g><g
           transform="translate(483.1758,315.5791)"
           id="g86"><path
             id="path88"
             style="fill:#231f20;fill-opacity:1;fill-rule:nonzero;stroke:none"
             d="m 0,0 h -5.859 v -5.435 h 6.53 V -7.067 H -7.804 V 8.005 H 0.335 V 6.373 H -5.859 V 1.609 l 5.859,0 z" /></g><g
           transform="translate(521.4678,309.9883)"
           id="g90"><path
             id="path92"
             style="fill:#231f20;fill-opacity:1;fill-rule:nonzero;stroke:none"
             d="m 0,0 c 0.38,-0.067 0.939,-0.091 1.633,-0.091 2.012,0 3.868,0.739 3.868,2.931 0,2.056 -1.766,2.907 -3.891,2.907 H 0 Z m 0,7.223 h 1.767 c 2.057,0 3.265,1.073 3.265,2.527 0,1.767 -1.342,2.459 -3.31,2.459 -0.894,0 -1.409,-0.066 -1.722,-0.135 z m -1.945,6.172 c 0.849,0.179 2.192,0.313 3.555,0.313 1.946,0 3.198,-0.336 4.137,-1.096 C 6.53,12.03 7,11.136 7,9.951 7,8.497 6.038,7.223 4.451,6.642 V 6.597 C 5.882,6.238 7.559,5.054 7.559,2.817 7.559,1.521 7.044,0.536 6.284,-0.201 5.233,-1.163 3.533,-1.61 1.073,-1.61 c -1.341,0 -2.37,0.089 -3.018,0.178 z" /></g><g
           transform="translate(553.4507,314.7725)"
           id="g94"><path
             id="path96"
             style="fill:#231f20;fill-opacity:1;fill-rule:nonzero;stroke:none"
             d="M 0,0 -1.476,4.34 C -1.812,5.323 -2.035,6.218 -2.258,7.09 H -2.303 C -2.527,6.195 -2.773,5.278 -3.064,4.362 L -4.539,0 Z M -4.942,-1.52 -6.507,-6.261 H -8.52 l 5.121,15.073 h 2.348 L 4.092,-6.261 H 2.013 L 0.402,-1.52 Z" /></g><g
           transform="translate(573.917,310.8818)"
           id="g98"><path
             id="path100"
             style="fill:#231f20;fill-opacity:1;fill-rule:nonzero;stroke:none"
             d="m 0,0 c 0.872,-0.537 2.147,-0.984 3.489,-0.984 1.99,0 3.153,1.051 3.153,2.572 0,1.408 -0.805,2.215 -2.84,2.996 -2.46,0.872 -3.981,2.147 -3.981,4.272 0,2.348 1.946,4.092 4.875,4.092 1.543,0 2.661,-0.358 3.332,-0.738 L 7.492,10.623 C 7,10.891 5.993,11.338 4.629,11.338 2.572,11.338 1.79,10.108 1.79,9.079 1.79,7.671 2.706,6.979 4.786,6.172 7.335,5.188 8.632,3.959 8.632,1.744 c 0,-2.325 -1.722,-4.338 -5.278,-4.338 -1.453,0 -3.041,0.425 -3.845,0.962 z" /></g><g
           transform="translate(602.5244,321.9287)"
           id="g102"><path
             id="path104"
             style="fill:#231f20;fill-opacity:1;fill-rule:nonzero;stroke:none"
             d="M 0,0 H -4.584 V 1.655 H 6.575 V 0 H 1.968 V -13.417 H 0 Z" /></g><g
           transform="translate(1044.3477,308.5107)"
           id="g106"><path
             id="path108"
             style="fill:#231f20;fill-opacity:1;fill-rule:nonzero;stroke:none"
             d="M 0,0 V 15.073 H 2.125 L 6.954,7.448 C 8.072,5.68 8.947,4.092 9.662,2.55 L 9.705,2.571 C 9.527,4.586 9.482,6.419 9.482,8.765 v 6.308 h 1.834 L 11.316,0 H 9.351 L 4.563,7.649 C 3.514,9.325 2.507,11.047 1.743,12.68 L 1.68,12.659 C 1.791,10.756 1.833,8.945 1.833,6.44 V 0 Z m -17.625,7.066 h -5.858 V 1.632 h 6.528 V 0 h -8.474 v 15.073 h 8.138 v -1.634 h -6.192 V 8.678 h 5.858 z M -43.257,0 h -1.945 v 15.073 h 1.945 z m -26.458,8.007 h 1.99 c 2.08,0 3.4,1.139 3.4,2.862 0,1.945 -1.409,2.794 -3.467,2.818 -0.939,0 -1.61,-0.09 -1.923,-0.18 z m -1.946,6.864 c 0.984,0.202 2.393,0.314 3.735,0.314 2.079,0 3.422,-0.379 4.361,-1.23 0.76,-0.671 1.185,-1.699 1.185,-2.862 0,-1.991 -1.252,-3.312 -2.84,-3.847 V 7.178 c 1.162,-0.401 1.856,-1.475 2.213,-3.04 0.493,-2.103 0.851,-3.557 1.164,-4.138 h -2.013 c -0.247,0.425 -0.582,1.722 -1.006,3.601 -0.448,2.079 -1.253,2.862 -3.019,2.93 h -1.834 V 0 h -1.946 z m -28.651,-7.423 c 0,-3.221 1.745,-6.106 4.808,-6.106 3.086,0 4.831,2.841 4.831,6.262 0,2.995 -1.566,6.127 -4.808,6.127 -3.221,0 -4.831,-2.975 -4.831,-6.283 m 11.696,0.244 c 0,-5.187 -3.154,-7.938 -7,-7.938 -3.98,0 -6.776,3.087 -6.776,7.648 0,4.785 2.975,7.917 6.999,7.917 4.115,0 6.777,-3.154 6.777,-7.627 M -118.295,7 h -5.524 v 1.452 h 5.524 z m -22.121,0.066 h -5.859 V 1.632 h 6.53 V 0 h -8.475 v 15.073 h 8.139 v -1.634 h -6.194 V 8.678 h 5.859 z m -34.757,8.007 V 6.149 c 0,-3.377 1.499,-4.807 3.512,-4.807 2.236,0 3.667,1.475 3.667,4.807 v 8.924 h 1.968 V 6.284 c 0,-4.631 -2.437,-6.53 -5.703,-6.53 -3.085,0 -5.412,1.767 -5.412,6.439 v 8.88 z M -202.84,2.37 c 0.873,-0.536 2.147,-0.983 3.489,-0.983 1.991,0 3.153,1.051 3.153,2.571 0,1.408 -0.804,2.214 -2.84,2.996 -2.46,0.873 -3.981,2.148 -3.981,4.274 0,2.347 1.946,4.091 4.876,4.091 1.542,0 2.661,-0.358 3.331,-0.739 l -0.536,-1.588 c -0.492,0.269 -1.498,0.716 -2.862,0.716 -2.058,0 -2.841,-1.229 -2.841,-2.258 0,-1.41 0.917,-2.102 2.998,-2.908 2.548,-0.983 3.845,-2.213 3.845,-4.428 0,-2.325 -1.721,-4.338 -5.276,-4.338 -1.454,0 -3.041,0.425 -3.847,0.96 z m -25.452,0 c 0.872,-0.536 2.146,-0.983 3.489,-0.983 1.989,0 3.153,1.051 3.153,2.571 0,1.408 -0.806,2.214 -2.84,2.996 -2.46,0.873 -3.981,2.148 -3.981,4.274 0,2.347 1.946,4.091 4.875,4.091 1.543,0 2.661,-0.358 3.332,-0.739 l -0.537,-1.588 c -0.492,0.269 -1.497,0.716 -2.862,0.716 -2.057,0 -2.84,-1.229 -2.84,-2.258 0,-1.41 0.917,-2.102 2.996,-2.908 2.55,-0.983 3.847,-2.213 3.847,-4.428 0,-2.325 -1.723,-4.338 -5.278,-4.338 -1.454,0 -3.041,0.425 -3.846,0.96 z M -245.851,0 h -1.945 v 15.073 h 1.945 z m -45.984,15.073 h 8.118 v -1.634 h -6.173 V 8.431 h 5.703 V 6.819 h -5.703 V 0 h -1.945 z m -28.651,-7.625 c 0,-3.221 1.744,-6.106 4.807,-6.106 3.087,0 4.831,2.841 4.831,6.262 0,2.995 -1.565,6.127 -4.808,6.127 -3.22,0 -4.83,-2.975 -4.83,-6.283 m 11.696,0.244 c 0,-5.187 -3.154,-7.938 -7,-7.938 -3.981,0 -6.776,3.087 -6.776,7.648 0,4.785 2.974,7.917 7,7.917 4.115,0 6.776,-3.154 6.776,-7.627 M -369.536,0 v 15.073 h 2.125 l 4.831,-7.625 c 1.117,-1.768 1.989,-3.356 2.705,-4.898 l 0.045,0.021 c -0.179,2.015 -0.224,3.848 -0.224,6.194 v 6.308 h 1.834 V 0 h -1.968 l -4.786,7.649 c -1.05,1.676 -2.057,3.398 -2.817,5.031 l -0.067,-0.021 c 0.111,-1.903 0.156,-3.714 0.156,-6.219 V 0 Z m -28.65,7.448 c 0,-3.221 1.744,-6.106 4.808,-6.106 3.085,0 4.83,2.841 4.83,6.262 0,2.995 -1.566,6.127 -4.809,6.127 -3.221,0 -4.829,-2.975 -4.829,-6.283 m 11.695,0.244 c 0,-5.187 -3.153,-7.938 -7,-7.938 -3.98,0 -6.776,3.087 -6.776,7.648 0,4.785 2.974,7.917 7,7.917 4.115,0 6.776,-3.154 6.776,-7.627 M -417.198,0 h -1.946 v 15.073 h 1.946 z" /></g><g
           transform="translate(1076.3545,321.9287)"
           id="g110"><path
             id="path112"
             style="fill:#231f20;fill-opacity:1;fill-rule:nonzero;stroke:none"
             d="M 0,0 H -4.585 V 1.655 H 6.575 V 0 H 1.968 V -13.417 H 0 Z" /></g><g
           transform="translate(1106.8389,315.5791)"
           id="g114"><path
             id="path116"
             style="fill:#231f20;fill-opacity:1;fill-rule:nonzero;stroke:none"
             d="M 0,0 H -5.859 V -5.435 H 0.67 V -7.067 H -7.805 V 8.005 h 8.14 V 6.373 H -5.859 V 1.609 l 5.859,0 z" /></g><g
           transform="translate(1126.4092,310.0547)"
           id="g118"><path
             id="path120"
             style="fill:#231f20;fill-opacity:1;fill-rule:nonzero;stroke:none"
             d="m 0,0 c 0.492,-0.089 1.208,-0.111 1.969,-0.111 4.159,0 6.417,2.325 6.417,6.394 0.022,3.556 -1.99,5.816 -6.105,5.816 -1.006,0 -1.766,-0.091 -2.281,-0.202 z m -1.945,13.328 c 1.185,0.18 2.593,0.314 4.136,0.314 2.796,0 4.787,-0.65 6.106,-1.879 1.341,-1.23 2.124,-2.974 2.124,-5.411 0,-2.46 -0.761,-4.474 -2.169,-5.86 -1.408,-1.408 -3.734,-2.169 -6.665,-2.169 -1.386,0 -2.549,0.067 -3.532,0.179 z" /></g><g
           transform="translate(1183.0391,309.0049)"
           id="g122"><path
             id="path124"
             style="fill:#231f20;fill-opacity:1;fill-rule:nonzero;stroke:none"
             d="m 0,0 c -0.715,-0.359 -2.146,-0.717 -3.98,-0.717 -4.249,0 -7.448,2.684 -7.448,7.625 0,4.719 3.199,7.917 7.871,7.917 1.879,0 3.065,-0.402 3.578,-0.671 l -0.468,-1.588 c -0.739,0.358 -1.789,0.626 -3.041,0.626 -3.533,0 -5.882,-2.257 -5.882,-6.215 0,-3.69 2.124,-6.061 5.792,-6.061 1.185,0 2.392,0.245 3.175,0.626 z" /></g><g
           transform="translate(1201.8506,316.5176)"
           id="g126"><path
             id="path128"
             style="fill:#231f20;fill-opacity:1;fill-rule:nonzero;stroke:none"
             d="M 0,0 H 1.99 C 4.069,0 5.389,1.141 5.389,2.862 5.389,4.808 3.98,5.658 1.923,5.68 0.984,5.68 0.312,5.591 0,5.501 Z m -1.946,6.865 c 0.984,0.201 2.392,0.314 3.735,0.314 2.079,0 3.421,-0.38 4.36,-1.231 0.76,-0.671 1.185,-1.699 1.185,-2.862 0,-1.99 -1.252,-3.309 -2.84,-3.847 V -0.827 C 5.657,-1.229 6.351,-2.304 6.709,-3.868 7.2,-5.971 7.559,-7.425 7.871,-8.006 H 5.858 C 5.612,-7.581 5.277,-6.284 4.853,-4.405 4.405,-2.326 3.6,-1.543 1.833,-1.476 H 0 v -6.53 h -1.946 z" /></g><path
           id="path130"
           style="fill:#231f20;fill-opacity:1;fill-rule:nonzero;stroke:none"
           d="m 1228.287,308.512 h -1.945 v 15.072 h 1.945 z" /><g
           transform="translate(1248.999,321.9287)"
           id="g132"><path
             id="path134"
             style="fill:#231f20;fill-opacity:1;fill-rule:nonzero;stroke:none"
             d="M 0,0 H -4.584 V 1.655 H 6.575 V 0 H 1.968 V -13.417 H 0 Z" /></g><path
           id="path136"
           style="fill:#231f20;fill-opacity:1;fill-rule:nonzero;stroke:none"
           d="m 1273.626,308.512 h -1.945 v 15.072 h 1.945 z" /><g
           transform="translate(1301.9854,309.0049)"
           id="g138"><path
             id="path140"
             style="fill:#231f20;fill-opacity:1;fill-rule:nonzero;stroke:none"
             d="m 0,0 c -0.716,-0.359 -2.147,-0.717 -3.981,-0.717 -4.249,0 -7.448,2.684 -7.448,7.625 0,4.719 3.199,7.917 7.872,7.917 1.879,0 3.064,-0.402 3.578,-0.671 l -0.468,-1.588 c -0.74,0.358 -1.79,0.626 -3.042,0.626 -3.533,0 -5.882,-2.257 -5.882,-6.215 0,-3.69 2.125,-6.061 5.793,-6.061 1.184,0 2.391,0.245 3.175,0.626 z" /></g><g
           transform="translate(1326.2969,314.7725)"
           id="g142"><path
             id="path144"
             style="fill:#231f20;fill-opacity:1;fill-rule:nonzero;stroke:none"
             d="M 0,0 -1.477,4.34 C -1.812,5.323 -2.035,6.218 -2.26,7.09 H -2.304 C -2.527,6.195 -2.773,5.278 -3.064,4.362 L -4.54,0 Z m -4.942,-1.52 -1.566,-4.741 h -2.013 l 5.122,15.073 h 2.348 L 4.092,-6.261 h -2.08 l -1.61,4.741 z" /></g><g
           transform="translate(1347.0088,323.584)"
           id="g146"><path
             id="path148"
             style="fill:#231f20;fill-opacity:1;fill-rule:nonzero;stroke:none"
             d="m 0,0 h 1.946 v -13.439 h 6.441 v -1.633 H 0 Z" /></g><g
           transform="translate(1392.6797,321.9287)"
           id="g150"><path
             id="path152"
             style="fill:#231f20;fill-opacity:1;fill-rule:nonzero;stroke:none"
             d="M 0,0 H -4.584 V 1.655 H 6.575 V 0 H 1.968 V -13.417 H 0 Z" /></g><g
           transform="translate(1417.3066,323.584)"
           id="g154"><path
             id="path156"
             style="fill:#231f20;fill-opacity:1;fill-rule:nonzero;stroke:none"
             d="M 0,0 V -6.307 H 7.291 V 0 H 9.258 V -15.072 H 7.291 v 7.067 H 0 v -7.067 H -1.945 V 0 Z" /></g><path
           id="path158"
           style="fill:#231f20;fill-opacity:1;fill-rule:nonzero;stroke:none"
           d="m 1446.316,308.512 h -1.946 v 15.072 h 1.946 z" /><g
           transform="translate(1464.1191,308.5117)"
           id="g160"><path
             id="path162"
             style="fill:#231f20;fill-opacity:1;fill-rule:nonzero;stroke:none"
             d="M 0,0 V 15.072 H 2.124 L 6.955,7.447 C 8.073,5.68 8.945,4.092 9.661,2.55 L 9.705,2.572 C 9.527,4.585 9.481,6.418 9.481,8.766 v 6.306 h 1.834 V 0 H 9.348 L 4.562,7.648 C 3.512,9.325 2.505,11.047 1.744,12.68 L 1.677,12.658 C 1.789,10.757 1.834,8.945 1.834,6.44 V 0 Z" /></g><g
           transform="translate(1493.2627,323.584)"
           id="g164"><path
             id="path166"
             style="fill:#231f20;fill-opacity:1;fill-rule:nonzero;stroke:none"
             d="m 0,0 h 1.946 v -7.268 h 0.067 c 0.402,0.581 0.804,1.119 1.185,1.61 L 7.805,0 h 2.415 l -5.456,-6.396 5.882,-8.676 H 8.341 L 3.377,-7.671 1.946,-9.325 v -5.747 H 0 Z" /></g><path
           id="path168"
           style="fill:#231f20;fill-opacity:1;fill-rule:nonzero;stroke:none"
           d="m 1521.756,308.512 h -1.945 v 15.072 h 1.945 z" /><g
           transform="translate(1539.5605,308.5117)"
           id="g170"><path
             id="path172"
             style="fill:#231f20;fill-opacity:1;fill-rule:nonzero;stroke:none"
             d="M 0,0 V 15.072 H 2.124 L 6.955,7.447 C 8.073,5.68 8.945,4.092 9.661,2.55 L 9.705,2.572 C 9.526,4.585 9.482,6.418 9.482,8.766 v 6.306 h 1.833 V 0 H 9.348 L 4.562,7.648 C 3.511,9.325 2.506,11.047 1.744,12.68 L 1.677,12.658 C 1.789,10.757 1.834,8.945 1.834,6.44 V 0 Z" /></g><g
           transform="translate(1580.1758,309.1826)"
           id="g174"><path
             id="path176"
             style="fill:#231f20;fill-opacity:1;fill-rule:nonzero;stroke:none"
             d="m 0,0 c -0.872,-0.312 -2.594,-0.827 -4.629,-0.827 -2.281,0 -4.16,0.581 -5.636,1.989 -1.297,1.253 -2.102,3.266 -2.102,5.614 0.022,4.495 3.109,7.783 8.163,7.783 1.744,0 3.108,-0.381 3.757,-0.695 l -0.47,-1.587 c -0.806,0.358 -1.812,0.649 -3.332,0.649 -3.668,0 -6.061,-2.281 -6.061,-6.061 0,-3.824 2.304,-6.082 5.815,-6.082 1.274,0 2.146,0.179 2.594,0.403 v 4.495 h -3.064 v 1.565 l 4.965,0 z" /></g></g></g></g></svg>